<svg width="53" height="18" viewBox="0 0 53 18" fill="none" xmlns="http://www.w3.org/2000/svg">
<path d="M12.8984 17L11.832 13.2852H6.30078L5.22266 17H0.839844L6.52344 0.0898438H11.7852L17.4688 17H12.8984ZM9.01953 3.67578L7.13281 10.1914H10.9883L9.11328 3.67578H9.01953ZM26.9062 17.1875C23.7305 17.1875 21.8203 14.7148 21.8203 10.5898C21.8203 6.51172 23.7656 4.05078 26.9531 4.05078C28.8047 4.05078 30.2109 5.05859 30.7734 6.48828H30.8555V0.0898438H35.0039V17H30.8789V14.8086H30.7969C30.2812 16.168 28.8047 17.1875 26.9062 17.1875ZM28.4648 7.29688C26.9766 7.29688 26.0742 8.57422 26.0742 10.625C26.0742 12.6875 26.9648 13.9414 28.4648 13.9414C29.9648 13.9414 30.8672 12.6992 30.8672 10.625C30.8672 8.57422 29.9531 7.29688 28.4648 7.29688ZM40.832 8.10547C40.832 5.55078 43.0117 3.93359 46.5273 3.93359C50.0078 3.93359 52.1758 5.58594 52.1992 8.22266H48.4023C48.3672 7.30859 47.6406 6.73438 46.4922 6.73438C45.4727 6.73438 44.8164 7.17969 44.8164 7.83594C44.8164 8.33984 45.2852 8.70312 46.2461 8.90234L48.918 9.44141C51.4609 9.98047 52.5508 11.0234 52.5508 12.957C52.5508 15.6055 50.1484 17.3047 46.5859 17.3047C42.8594 17.3047 40.7031 15.6055 40.5273 12.9922H44.5586C44.6758 13.9414 45.4375 14.5039 46.6562 14.5039C47.7578 14.5039 48.4375 14.1055 48.4375 13.4258C48.4375 12.9102 48.0508 12.6172 47.0547 12.4062L44.6406 11.9023C42.1445 11.375 40.832 10.0625 40.832 8.10547Z" fill="black"/>
</svg>
