<svg width="183" height="40" viewBox="0 0 183 40" fill="none" xmlns="http://www.w3.org/2000/svg">
<path d="M97.6189 30.7679L97.6761 31.7107C98.2766 30.9679 99.0772 30.625 100.049 30.625C101.765 30.625 102.623 31.5964 102.651 33.5393V38.9393H100.821V33.6536C100.821 33.1393 100.707 32.7393 100.478 32.5107C100.25 32.2536 99.8778 32.1393 99.3918 32.1393C98.6483 32.1393 98.105 32.4821 97.7333 33.1393V38.9679H95.9033V30.7964H97.6475L97.6189 30.7679Z" fill="#0C6792"/>
<path d="M108.114 39.0821C106.942 39.0821 105.998 38.7107 105.283 37.9964C104.568 37.2536 104.197 36.2821 104.197 35.0821V34.8536C104.197 34.025 104.368 33.3107 104.683 32.6536C104.997 32.025 105.426 31.5107 105.998 31.1679C106.57 30.7964 107.199 30.625 107.914 30.625C109.029 30.625 109.887 30.9679 110.487 31.6821C111.088 32.3964 111.402 33.3964 111.402 34.6821V35.425H106.055C106.113 36.1107 106.341 36.625 106.742 37.025C107.142 37.425 107.628 37.625 108.228 37.625C109.058 37.625 109.744 37.2821 110.287 36.5964L111.288 37.5393C110.973 38.025 110.516 38.3964 109.973 38.6821C109.429 38.9393 108.8 39.0821 108.143 39.0821H108.114ZM107.914 32.0821C107.399 32.0821 106.999 32.2536 106.684 32.625C106.37 32.9679 106.17 33.4821 106.084 34.1107H109.572V33.9679C109.544 33.3679 109.372 32.8821 109.086 32.5679C108.8 32.2536 108.4 32.0821 107.885 32.0821H107.914Z" fill="#0C6792"/>
<path d="M115.748 33.4592L117.292 30.7734H119.322L116.834 34.802L119.408 38.9449H117.378L115.748 36.1449L114.118 38.9449H112.088L114.661 34.802L112.174 30.7734H114.204L115.719 33.4592H115.748Z" fill="#0C6792"/>
<path d="M122.897 28.7734V30.7734H124.327V32.1449H122.897V36.7163C122.897 37.0306 122.955 37.2591 123.069 37.402C123.183 37.5449 123.412 37.602 123.727 37.602C123.927 37.602 124.155 37.602 124.356 37.5163V38.9449C123.927 39.0591 123.526 39.1163 123.155 39.1163C121.754 39.1163 121.039 38.3449 121.039 36.7734V32.1449H119.695V30.7734H121.039V28.7734H122.869H122.897Z" fill="#0C6792"/>
<path d="M129.616 28.6249C129.616 28.3393 129.702 28.1107 129.873 27.9107C130.045 27.7107 130.302 27.625 130.645 27.625C130.988 27.625 131.246 27.7107 131.417 27.9107C131.589 28.1107 131.703 28.3393 131.703 28.6249C131.703 28.9107 131.617 29.1392 131.417 29.3107C131.246 29.4821 130.988 29.5964 130.645 29.5964C130.302 29.5964 130.045 29.5107 129.873 29.3107C129.702 29.1392 129.616 28.9107 129.616 28.6249ZM131.56 38.9107H129.73V30.7392H131.56V38.9107Z" fill="#0C6792"/>
<path d="M138.137 36.7107C138.137 36.3964 137.994 36.1393 137.737 35.9679C137.48 35.7964 137.022 35.6536 136.393 35.5107C135.764 35.3679 135.249 35.225 134.821 35.025C133.906 34.5964 133.448 33.9393 133.448 33.1107C133.448 32.3964 133.734 31.825 134.334 31.3393C134.935 30.8536 135.678 30.625 136.593 30.625C137.566 30.625 138.366 30.8536 138.967 31.3393C139.567 31.825 139.882 32.4536 139.882 33.225H138.052C138.052 32.8821 137.909 32.5679 137.651 32.3393C137.394 32.1107 137.051 31.9964 136.622 31.9964C136.222 31.9964 135.879 32.0821 135.65 32.2821C135.392 32.4821 135.278 32.7107 135.278 33.025C135.278 33.3107 135.392 33.5393 135.621 33.6821C135.85 33.825 136.336 33.9964 137.051 34.1679C137.766 34.3393 138.338 34.5107 138.738 34.7393C139.138 34.9679 139.453 35.225 139.653 35.5393C139.853 35.8536 139.939 36.225 139.939 36.6536C139.939 37.3964 139.624 37.9964 139.024 38.4536C138.423 38.9107 137.623 39.1393 136.622 39.1393C135.964 39.1393 135.364 39.025 134.821 38.7679C134.306 38.5393 133.877 38.1964 133.591 37.7679C133.305 37.3393 133.162 36.8821 133.162 36.3964H134.935C134.935 36.825 135.135 37.1679 135.421 37.3964C135.736 37.625 136.136 37.7393 136.622 37.7393C137.108 37.7393 137.48 37.6536 137.737 37.4536C137.994 37.2821 138.109 37.025 138.109 36.7393L138.137 36.7107Z" fill="#0C6792"/>
<path d="M147.114 30.7679L147.171 31.7107C147.771 30.9679 148.572 30.625 149.544 30.625C151.26 30.625 152.117 31.5964 152.146 33.5393V38.9393H150.316V33.6536C150.316 33.1393 150.202 32.7393 149.973 32.5107C149.744 32.2536 149.372 32.1393 148.886 32.1393C148.143 32.1393 147.6 32.4821 147.228 33.1393V38.9679H145.398V30.7964H147.142L147.114 30.7679Z" fill="#0C6792"/>
<path d="M153.664 34.773C153.664 33.973 153.835 33.2587 154.15 32.6016C154.464 31.973 154.922 31.4587 155.494 31.1158C156.065 30.773 156.723 30.6016 157.467 30.6016C158.582 30.6016 159.468 30.9444 160.154 31.6587C160.841 32.373 161.212 33.3158 161.27 34.4873V34.9158C161.27 35.7158 161.127 36.4301 160.812 37.0873C160.497 37.7158 160.069 38.2016 159.468 38.573C158.896 38.9158 158.239 39.0873 157.467 39.0873C156.323 39.0873 155.379 38.7158 154.693 37.9444C154.007 37.173 153.664 36.1444 153.664 34.8873V34.8016V34.773ZM155.494 34.9158C155.494 35.7444 155.665 36.4016 156.008 36.8873C156.351 37.373 156.837 37.6016 157.467 37.6016C158.096 37.6016 158.582 37.373 158.925 36.8873C159.268 36.4016 159.44 35.6873 159.44 34.773C159.44 33.9444 159.268 33.2873 158.896 32.8016C158.553 32.3158 158.067 32.0873 157.438 32.0873C156.809 32.0873 156.351 32.3158 156.008 32.8016C155.665 33.2873 155.465 34.0016 155.465 34.9444L155.494 34.9158Z" fill="#0C6792"/>
<path d="M170.019 36.402L171.305 30.7734H173.107L170.876 38.9449H169.361L167.617 33.3449L165.901 38.9449H164.386L162.155 30.7734H163.957L165.272 36.3449L166.959 30.7734H168.332L170.019 36.402Z" fill="#0C6792"/>
<path d="M117.663 20.4L114.661 10.8286H112.488L109.543 20.4L106.312 10H103.538L108.142 23.7429H110.658L113.546 14.1143L116.491 23.7429H119.007L123.582 10H120.837L117.663 20.4Z" fill="#0C6792"/>
<path d="M131.502 9.60156C126.869 9.60156 124.182 13.173 124.182 16.8587C124.182 20.573 126.898 24.1444 131.502 24.1444C136.105 24.1444 138.822 20.573 138.822 16.8873C138.822 13.2016 136.105 9.60156 131.502 9.60156ZM131.502 21.6873C128.871 21.6873 126.812 19.6301 126.812 16.9158C126.812 14.1444 128.871 12.0873 131.502 12.0873C134.132 12.0873 136.191 14.1444 136.191 16.8873C136.191 19.6301 134.132 21.6873 131.502 21.6873Z" fill="#0C6792"/>
<path d="M143.999 12.0301V10.0016H141.511V23.7444H144.142V16.3158C144.142 13.6016 145.429 12.2301 147.916 12.2301H148.088V9.60156C146.229 9.60156 144.771 10.4016 143.999 12.0301Z" fill="#0C6792"/>
<path d="M161.469 9.99754H158.266L152.891 15.4261V5.05469H150.231V23.7404H152.891V16.6833L158.581 23.7404H161.64L155.35 16.0547L161.469 9.99754Z" fill="#0C6792"/>
<path d="M168.303 15.5158C166.845 15.1158 165.844 14.6016 165.787 13.5158C165.787 12.6016 166.473 11.7444 167.76 11.7444C169.104 11.7444 169.761 12.5158 169.761 13.6016H172.364C172.163 10.5444 169.676 9.60156 167.789 9.60156C165.272 9.60156 163.156 11.173 163.156 13.773C163.156 15.8301 164.7 16.7444 166.616 17.3444C169.075 18.1444 170.105 18.6016 170.133 19.973C170.133 21.1444 169.132 22.0301 167.874 22.0301C166.902 22.0301 165.558 21.4873 165.444 19.8016H162.842C162.956 22.9444 165.673 24.173 167.846 24.173C170.562 24.173 172.792 22.3444 172.735 19.6873C172.649 16.7444 170.362 16.1158 168.275 15.5444" fill="#0C6792"/>
<path d="M50.3523 12.6254C49.7233 11.3112 47.979 9.79688 45.234 9.79688C41.2309 9.79688 38.1714 12.8826 38.1714 17.0826C38.1714 20.9112 40.802 24.3683 45.234 24.3683C47.4072 24.3683 49.3801 23.3969 50.3523 21.5683V23.9683H52.983V10.2254H50.3523V12.654V12.6254ZM49.9234 19.1683C49.2372 20.7397 47.7503 21.8826 45.6629 21.8826C42.3175 21.8826 40.8878 19.1683 40.8592 17.1112C40.8592 14.5112 42.7178 12.2254 45.6058 12.2254C47.8075 12.2254 49.3515 13.454 50.0092 15.054C50.3237 15.6826 50.4381 16.3969 50.4095 17.1112C50.4095 17.8254 50.238 18.5397 49.9234 19.1683Z" fill="#1DA3DD"/>
<path d="M84.1233 12.6254C83.4943 11.3112 81.75 9.79688 79.005 9.79688C75.0019 9.79688 71.9424 12.8826 71.9424 17.0826C71.9424 20.9112 74.573 24.3683 79.005 24.3683C81.1782 24.3683 83.1511 23.3969 84.1233 21.5683V23.9683H86.7539V10.2254H84.1233V12.654V12.6254ZM83.6658 19.1683C82.9796 20.7397 81.4927 21.8826 79.4054 21.8826C76.0599 21.8826 74.6302 19.1683 74.6016 17.1112C74.6016 14.5112 76.4602 12.2254 79.3482 12.2254C81.5499 12.2254 83.0939 13.454 83.7516 15.054C84.0661 15.6826 84.1805 16.3969 84.1519 17.1112C84.1519 17.8254 83.9804 18.5397 83.6658 19.1683Z" fill="#1DA3DD"/>
<path d="M93.8453 5.25781H91.2147V10.2007H88.7271V12.2578H91.2147V23.9435H93.8453V12.2578H96.333V10.2007H93.8453V5.25781Z" fill="#1DA3DD"/>
<path d="M101.109 5.25781H98.478V8.02924H101.109V5.25781Z" fill="#1DA3DD"/>
<path d="M101.109 10.2031H98.478V23.946H101.109V10.2031Z" fill="#1DA3DD"/>
<path d="M69.3974 15.746V10.2031H66.7668V17.4888C66.7668 19.8317 64.851 21.746 62.5063 21.746C60.1616 21.746 58.2459 19.8317 58.2459 17.4888V10.2031H55.6152V17.4888C55.6152 21.2888 58.7034 24.3746 62.5063 24.3746C64.1362 24.3746 65.5945 23.5174 66.7668 22.2603V24.3174C66.7668 27.0603 64.5365 29.2889 61.7915 29.2889H60.5906V31.9175H61.7915C65.9948 31.9175 69.3974 28.5174 69.3974 24.3174V16.6317H69.3402C69.3688 16.3174 69.3974 16.0317 69.3974 15.746Z" fill="#1DA3DD"/>
<path d="M26.0681 8.71058L26.8364 9.47829C30.1928 12.832 30.1928 18.2868 26.8364 21.6405L26.4522 22.0244C22.8735 25.6003 17.0909 25.6003 13.5122 22.0244C9.93344 18.4485 9.93344 12.6704 13.5122 9.09443L13.8963 8.71058C17.2527 5.35689 22.7118 5.35689 26.0681 8.71058Z" fill="#75BBE7"/>
<path d="M30.1095 17.4605L34.3414 1.28906L18.1001 5.40335" fill="white"/>
<path d="M30.3655 17.5141L29.8508 17.3712L33.9683 1.65692L18.1559 5.65693L18.0415 5.14264L34.7117 0.914062L30.3655 17.5141Z" fill="#0C6792"/>
<path d="M33.0558 6.20068L29.3672 2.54352L34.2281 1.25781L33.0558 6.20068Z" fill="#0C6792"/>
<path d="M29.3945 18.6301C30.5382 17.4873 30.5382 15.6301 29.3945 14.4587C28.2508 13.3158 26.3636 13.3158 25.2198 14.4587L21.7886 17.8873L25.9633 22.0587L29.3945 18.6301Z" fill="#75BBE7"/>
<path d="M25.9625 22.4839L21.3589 17.8839L24.9903 14.2554C25.6194 13.6554 26.42 13.3125 27.2778 13.3125C28.1356 13.3125 28.9647 13.6554 29.5938 14.2554C30.1943 14.8554 30.5374 15.6839 30.5374 16.5696C30.5374 17.4554 30.1943 18.2554 29.5938 18.8554L25.9339 22.5125L25.9625 22.4839ZM22.2167 17.8839L25.9339 21.5982L29.1363 18.3982C29.6224 17.9125 29.9083 17.2268 29.9083 16.5411C29.9083 15.8268 29.6224 15.1696 29.1363 14.6839C28.107 13.6554 26.4486 13.6554 25.4192 14.6839L22.2167 17.8839Z" fill="#076790"/>
<path d="M21.0454 10.3176C22.1891 9.17478 22.1891 7.31763 21.0454 6.14621C19.9016 5.00335 18.0145 5.00335 16.8707 6.14621L13.4395 9.57478L17.6141 13.7462L21.0454 10.3176Z" fill="#75BBE7"/>
<path d="M17.6134 14.1687L13.0098 9.56875L16.6698 5.91161C17.9279 4.65446 20.0152 4.65446 21.2734 5.91161C21.8738 6.51161 22.217 7.34018 22.217 8.22589C22.217 9.11161 21.8738 9.91161 21.2734 10.5116L17.6134 14.1687ZM13.8962 9.56875L17.6134 13.283L20.8159 10.083C21.8452 9.05446 21.8452 7.36875 20.8159 6.34018C19.7865 5.31161 18.128 5.31161 17.0987 6.34018L13.8962 9.54018V9.56875Z" fill="#076790"/>
<path d="M25.2202 14.4583C26.3639 13.3154 26.3639 11.4297 25.2202 10.2868C24.0764 9.14397 22.1893 9.14397 21.0455 10.2868L17.6143 13.7154L21.7889 17.8868L25.2202 14.4583Z" fill="#1DA3DD"/>
<path d="M21.7877 18.3406L17.1841 13.7406L20.8441 10.0835C21.4446 9.48348 22.2738 9.14062 23.1602 9.14062C24.018 9.14062 24.8472 9.48348 25.4763 10.0835C26.0767 10.6835 26.4199 11.5121 26.4199 12.3978C26.4199 13.2835 26.0767 14.0835 25.4763 14.7121L21.8163 18.3692L21.7877 18.3406ZM18.0705 13.7406L21.8163 17.4549L25.0188 14.2549C26.0481 13.2263 26.0481 11.5406 25.0188 10.5121C23.9894 9.48348 22.3024 9.48348 21.3016 10.5121L18.0991 13.7121L18.0705 13.7406Z" fill="#076790"/>
<mask id="mask0_976_2361" style="mask-type:luminance" maskUnits="userSpaceOnUse" x="10" y="5" width="20" height="20">
<path d="M25.5222 8.16576L27.3621 10.0042C30.4353 13.0751 30.4353 18.0451 27.3621 21.1159L26.4522 22.0251C22.8735 25.601 17.0909 25.601 13.5122 22.0251C9.93344 18.4491 9.93344 12.671 13.5122 9.0951L14.422 8.18596C17.4953 5.1151 22.4691 5.1151 25.5424 8.18596L25.5222 8.16576Z" fill="white"/>
</mask>
<g mask="url(#mask0_976_2361)">
<path d="M12.185 8.59375L8.68408 12.0858L23.4512 26.8671L26.9521 23.3751L12.185 8.59375Z" fill="#1DA3DD"/>
<path d="M12.1771 10.4062L10.5186 12.0623L23.4541 24.9968L25.1126 23.3407L12.1771 10.4062Z" fill="#076790"/>
</g>
<path d="M19.93 25.5967C18.0428 25.5967 16.27 24.8538 14.9261 23.5395L11.9523 20.5681C9.2073 17.8252 9.2073 13.3395 11.9523 10.5681L16.8132 5.71094L17.1564 6.05379L12.2954 10.9109C9.72199 13.4824 9.72199 17.6538 12.2954 20.2252L15.2692 23.1966C16.5273 24.4538 18.1571 25.1109 19.93 25.1109C21.7028 25.1109 23.3326 24.4252 24.5907 23.1966L27.5645 20.2252L27.9076 20.5681L24.9339 23.5395C23.59 24.8824 21.8172 25.5967 19.93 25.5967Z" fill="#0C6792"/>
</svg>
