<svg width="48" height="50" viewBox="0 0 48 50" fill="none" xmlns="http://www.w3.org/2000/svg">
<path d="M48 25.5889C48 23.9356 47.84 22.2289 47.5733 20.6289H24.48V30.0689H37.7066C37.1733 33.1089 35.4133 35.7756 32.8 37.4822L40.6933 43.6156C45.3333 39.2956 48 33.0022 48 25.5889Z" fill="#4280EF"/>
<path d="M24.4799 49.4794C31.0933 49.4794 36.6399 47.2928 40.6933 43.5594L32.7999 37.4794C30.6133 38.9728 27.7866 39.8261 24.4799 39.8261C18.0799 39.8261 12.6933 35.5061 10.7199 29.7461L2.61328 35.9861C6.77328 44.2528 15.1999 49.4794 24.4799 49.4794Z" fill="#34A353"/>
<path d="M10.7198 29.6956C9.70652 26.6556 9.70652 23.349 10.7198 20.309L2.61318 14.0156C-0.853483 20.949 -0.853483 29.109 2.61318 35.989L10.7198 29.6956Z" fill="#F6B704"/>
<path d="M24.4799 10.2271C27.9466 10.1738 31.3599 11.5071 33.8666 13.9071L40.8533 6.86713C36.4266 2.70713 30.5599 0.467129 24.4799 0.520462C15.1999 0.520462 6.77328 5.74713 2.61328 14.0138L10.7199 20.3071C12.6933 14.4938 18.0799 10.2271 24.4799 10.2271Z" fill="#E54335"/>
</svg>
