<svg width="43" height="43" viewBox="0 0 43 43" fill="none" xmlns="http://www.w3.org/2000/svg">
<g clip-path="url(#clip0_1097_236)">
<path d="M9.40625 12.0938H0V43H9.40625V12.0938Z" fill="#007BB5"/>
<path d="M32.254 12.0938C26.875 12.0938 25.3834 13.8568 24.1875 16.125V12.0938H14.7812V43H24.1875V25.5312C24.1875 22.8438 24.1875 20.1562 28.8906 20.1562C33.5938 20.1562 33.5938 22.8438 33.5938 25.5312V43H43V25.5312C43 17.4688 41.6562 12.0938 32.254 12.0938Z" fill="#007BB5"/>
<path d="M4.70312 9.40625C7.30059 9.40625 9.40625 7.30059 9.40625 4.70312C9.40625 2.10566 7.30059 0 4.70312 0C2.10566 0 0 2.10566 0 4.70312C0 7.30059 2.10566 9.40625 4.70312 9.40625Z" fill="#007BB5"/>
</g>
<defs>
<clipPath id="clip0_1097_236">
<rect width="43" height="43" fill="white"/>
</clipPath>
</defs>
</svg>
