<svg width="25" height="25" viewBox="0 0 25 25" fill="none" xmlns="http://www.w3.org/2000/svg">
<path d="M16.1745 7.80042L16.9428 8.56814C20.2992 11.9218 20.2992 17.3766 16.9428 20.7304L16.5586 21.1142C12.9799 24.6902 7.19734 24.6901 3.61864 21.1142C0.0398803 17.5383 0.0398803 11.7602 3.61864 8.18428L4.00274 7.80042C7.35914 4.44674 12.8182 4.44674 16.1745 7.80042Z" fill="#75BBE7"/>
<path d="M20.2155 16.5425L24.4474 0.371094L8.20605 4.48537" fill="white"/>
<path d="M20.4715 16.6L19.9568 16.4571L24.0743 0.742858L8.26186 4.74287L8.14746 4.22858L24.8178 0L20.4715 16.6Z" fill="#0C6792"/>
<path d="M19.5013 17.7161C20.6451 16.5733 20.6451 14.7161 19.5013 13.5447C18.3576 12.4018 16.4705 12.4018 15.3267 13.5447L11.8955 16.9733L16.0701 21.1447L19.5013 17.7161Z" fill="#75BBE7"/>
<path d="M16.0684 21.5737L11.4648 16.9737L15.0962 13.3452C15.7253 12.7452 16.5259 12.4023 17.3837 12.4023C18.2415 12.4023 19.0707 12.7452 19.6997 13.3452C20.3002 13.9452 20.6433 14.7737 20.6433 15.6594C20.6433 16.5452 20.3002 17.3452 19.6997 17.9452L16.0398 21.6023L16.0684 21.5737ZM12.3226 16.9737L16.0398 20.688L19.2422 17.488C19.7283 17.0023 20.0142 16.3166 20.0142 15.6309C20.0142 14.9166 19.7283 14.2594 19.2422 13.7737C18.2129 12.7452 16.5545 12.7452 15.5251 13.7737L12.3226 16.9737Z" fill="#076790"/>
<path d="M11.1518 9.39964C12.2955 8.25681 12.2955 6.39967 11.1518 5.22824C10.008 4.08538 8.1209 4.08538 6.9771 5.22824L3.5459 8.65681L7.7205 12.8282L11.1518 9.39964Z" fill="#75BBE7"/>
<path d="M7.71981 13.2586L3.11621 8.6586L6.77621 5.00145C8.03431 3.74431 10.1216 3.74431 11.3798 5.00145C11.9802 5.60145 12.3234 6.43003 12.3234 7.31574C12.3234 8.20145 11.9802 9.00145 11.3798 9.60144L7.71981 13.2586ZM4.00261 8.6586L7.71981 12.3728L10.9223 9.17284C11.9516 8.14431 11.9516 6.4586 10.9223 5.43002C9.89291 4.40145 8.23441 4.40145 7.20511 5.43002L4.00261 8.63002V8.6586Z" fill="#076790"/>
<path d="M15.3266 13.5442C16.4703 12.4013 16.4703 10.5156 15.3266 9.37275C14.1828 8.22992 12.2957 8.22992 11.1519 9.37275L7.7207 12.8013L11.8953 16.9727L15.3266 13.5442Z" fill="#1DA3DD"/>
<path d="M11.8946 17.4304L7.29102 12.8304L10.951 9.17334C11.5514 8.57333 12.3807 8.23047 13.2671 8.23047C14.1249 8.23047 14.9541 8.57333 15.5832 9.17334C16.1836 9.77334 16.5268 10.6019 16.5268 11.4876C16.5268 12.3733 16.1836 13.1733 15.5832 13.8019L11.9232 17.459L11.8946 17.4304ZM8.17741 12.8304L11.9232 16.5447L15.1257 13.3447C16.155 12.3161 16.155 10.6304 15.1257 9.60194C14.0963 8.57333 12.4093 8.57333 11.4085 9.60194L8.20601 12.8019L8.17741 12.8304Z" fill="#076790"/>
<mask id="mask0_1181_2090" style="mask-type:luminance" maskUnits="userSpaceOnUse" x="0" y="4" width="20" height="20">
<path d="M15.6286 7.2556L17.4685 9.09404C20.5417 12.1649 20.5417 17.1349 17.4685 20.2057L16.5586 21.1149C12.9799 24.6908 7.19734 24.6908 3.61864 21.1149C0.0398803 17.5389 0.0398803 11.7608 3.61864 8.18494L4.52844 7.2758C7.60174 4.20494 12.5755 4.20494 15.6488 7.2758L15.6286 7.2556Z" fill="white"/>
</mask>
<g mask="url(#mask0_1181_2090)">
<path d="M2.29195 7.68359L-1.20898 11.1756L13.558 25.957L17.0589 22.4649L2.29195 7.68359Z" fill="#1DA3DD"/>
<path d="M2.28458 9.49219L0.625977 11.1483L13.5616 24.0828L15.2201 22.4267L2.28458 9.49219Z" fill="#076790"/>
</g>
<path d="M10.0365 24.6865C8.14925 24.6865 6.37645 23.9436 5.03255 22.6293L2.05875 19.6579C-0.68625 16.915 -0.68625 12.4293 2.05875 9.65794L6.91965 4.80078L7.26285 5.14364L2.40185 10.0007C-0.171561 12.5722 -0.171561 16.7436 2.40185 19.315L5.37565 22.2865C6.63375 23.5436 8.26355 24.2007 10.0365 24.2007C11.8093 24.2007 13.4391 23.515 14.6972 22.2865L17.6709 19.315L18.014 19.6579L15.0404 22.6293C13.6965 23.9722 11.9236 24.6865 10.0365 24.6865Z" fill="#0C6792"/>
</svg>
