<svg width="52" height="52" viewBox="0 0 52 52" fill="none" xmlns="http://www.w3.org/2000/svg">
<path d="M15.1732 9.07891C6.88574 9.07891 0.538086 19.8648 0.538086 31.2703C0.538086 38.4102 3.99121 42.9195 9.78027 42.9195C13.9443 42.9195 16.9404 40.9594 22.2725 31.6461C22.2725 31.6461 24.4967 27.7258 26.0201 25.0242L29.1889 19.6617C31.8803 15.5078 34.1045 13.4359 36.7451 13.4359C42.2295 13.4359 46.617 21.5102 46.617 31.4328C46.617 35.2109 45.3779 37.4047 42.8084 37.4047C40.3506 37.4047 39.1725 35.7797 34.5006 28.2641L30.2045 32.0117C35.0693 40.157 37.7811 42.9195 42.6967 42.9195C48.3334 42.9195 51.4717 38.3391 51.4717 31.0469C51.4717 19.093 44.9818 9.05859 37.0904 9.05859C32.9162 9.05859 29.6459 12.207 26.6904 16.1984L23.41 21.0125C20.1701 25.9891 18.1998 29.107 18.1998 29.107C13.8834 35.8813 12.3904 37.3945 9.9834 37.3945C7.50527 37.3945 6.04277 35.2211 6.04277 31.3516C6.04277 23.0641 10.1764 14.5938 15.1021 14.5938L15.1732 9.07891Z" fill="url(#paint0_linear_1097_230)"/>
<path d="M26.9646 19.9469L23.41 21.0438C20.1701 26.0203 18.1998 29.1383 18.1998 29.1383C13.8834 35.9125 12.3904 37.4258 9.9834 37.4258C7.50527 37.4258 6.04277 35.2524 6.04277 31.3828C6.04277 23.0953 10.1764 14.625 15.1021 14.625L15.1732 9.08985C6.88574 9.07969 0.538086 19.8656 0.538086 31.2711C0.538086 38.4109 3.99121 42.9203 9.78027 42.9203C13.9443 42.9203 16.9404 40.9602 22.2725 31.6469C22.2725 31.6469 24.4967 27.7266 26.0201 25.025L26.9646 19.9469Z" fill="url(#paint1_linear_1097_230)"/>
<path d="M30.2049 32.0211C35.0697 40.1664 37.7814 42.9188 42.6971 42.9188L42.8088 37.4039C40.351 37.4039 39.1729 35.7891 34.501 28.2734C30.5807 21.8953 28.5799 18.7062 26.6908 16.218C22.6283 11.0484 19.2361 9.07812 15.1736 9.07812L15.1025 14.6133C17.7736 14.6133 19.9979 16.157 23.4104 21.0422C24.8424 23.0531 27.7775 27.8367 30.2049 32.0211Z" fill="url(#paint2_linear_1097_230)"/>
<path d="M26.6805 16.218C22.618 11.0484 19.2258 9.07812 15.1531 9.07812C11.1414 9.07812 7.58672 11.607 4.97656 15.507L8.89687 19.5187C10.532 16.5633 12.7359 14.6234 15.1023 14.6234C17.7734 14.6234 19.9773 16.1469 23.3898 21.032L26.6805 16.218Z" fill="url(#paint3_linear_1097_230)"/>
<path d="M32.9062 36.2875C36.2477 41.1523 38.7664 42.9195 42.6969 42.9195C48.3336 42.9195 51.4719 38.3391 51.4719 31.0469L46.6172 31.4328C46.6172 35.2109 45.3781 37.4047 42.8086 37.4047C40.8281 37.4047 39.6703 36.3484 36.8367 31.9812L32.9062 36.2875Z" fill="url(#paint4_linear_1097_230)"/>
<defs>
<linearGradient id="paint0_linear_1097_230" x1="0.538086" y1="25.9891" x2="51.4717" y2="25.9891" gradientUnits="userSpaceOnUse">
<stop stop-color="#0064E0"/>
<stop offset="0.061763" stop-color="#006AE5"/>
<stop offset="0.2183" stop-color="#007AF4"/>
<stop offset="0.8106" stop-color="#007DF6"/>
<stop offset="1" stop-color="#0080F9"/>
</linearGradient>
<linearGradient id="paint1_linear_1097_230" x1="5.0562" y1="19.6346" x2="23.4322" y2="38.6365" gradientUnits="userSpaceOnUse">
<stop stop-color="#0064E0"/>
<stop offset="0.0134753" stop-color="#0065E1"/>
<stop offset="0.2894" stop-color="#0075F0"/>
<stop offset="0.5971" stop-color="#007FF9"/>
<stop offset="1" stop-color="#0082FC"/>
</linearGradient>
<linearGradient id="paint2_linear_1097_230" x1="11.1975" y1="6.31725" x2="42.2604" y2="39.8867" gradientUnits="userSpaceOnUse">
<stop stop-color="#0082FB"/>
<stop offset="0.0216721" stop-color="#017CF5"/>
<stop offset="0.0904785" stop-color="#0471EA"/>
<stop offset="0.1872" stop-color="#066AE3"/>
<stop offset="0.4561" stop-color="#0668E1"/>
<stop offset="0.7462" stop-color="#056AE3"/>
<stop offset="0.8847" stop-color="#0472EB"/>
<stop offset="0.9742" stop-color="#017CF5"/>
<stop offset="1" stop-color="#0082FB"/>
</linearGradient>
<linearGradient id="paint3_linear_1097_230" x1="4.97656" y1="15.0551" x2="26.6805" y2="15.0551" gradientUnits="userSpaceOnUse">
<stop stop-color="#0064E0"/>
<stop offset="0.4218" stop-color="#0069E4"/>
<stop offset="0.4332" stop-color="#0069E4"/>
<stop offset="1" stop-color="#0668E1"/>
</linearGradient>
<linearGradient id="paint4_linear_1097_230" x1="32.9079" y1="36.9832" x2="51.4719" y2="36.9832" gradientUnits="userSpaceOnUse">
<stop stop-color="#066BE3"/>
<stop offset="0.3087" stop-color="#0470E9"/>
<stop offset="0.559" stop-color="#0279F2"/>
<stop offset="1" stop-color="#0080F9"/>
</linearGradient>
</defs>
</svg>
